# xmcd CD database file
#
# Track frame offsets:
#	150
#	900
#	1650
#	2400
#	3150
#	113105
#
# Disc length: 4440 seconds
#
# Revision: 2
# Processed by: cddbd v1.5.1PL0 Copyright (c) Steve Scherf et al.
# Submitted via: CDex 1.51
#
DISCID=22115606
DTITLE=Sash! - Ganbareh(Single)
DYEAR=2002
DGENRE=Dance
TTITLE0=Ganbareh(single edit)
TTITLE1=The Sunset(single edit)
TTITLE2=Ganbareh((X-Tended version)
TTITLE3=Ganbareh(Careca remix)
TTITLE4=Ganbareh(Bonus trailer)
TTITLE5=anticopy data!
EXTD=YEAR: 2002
EXTT0=
EXTT1=
EXTT2=
EXTT3=
EXTT4=
EXTT5=
PLAYORDER=
